<?xml version="1.0" encoding="UTF-8" standalone="no"?> <svg id="Layer_1" data-name="Layer 1" xmlns="http://www.w3.org/2000/svg" viewBox="0 0 128 128"><defs><style>.cls-1{fill:#2e79bd;}.cls-2{fill:#2d3e50;}</style></defs><title>b</title><path class="cls-1" d="M55.864,43.77773a9.17224,9.17224,0,0,0,3.6685-3.85114c-.15085.29778,1.25068,1.57227,1.46507,1.75491a7.97307,7.97307,0,0,0,1.41343.97275,1.64209,1.64209,0,0,0,2.35438-.97671,1.70658,1.70658,0,0,0,.06746-.46455,1.62842,1.62842,0,0,0-.85359-1.43327,3.99959,3.99959,0,0,1-1.3856-1.08391c-.64317-1.00449-.42084-2.5529-.48042-3.69236a28.76572,28.76572,0,0,0-.30968-4.0894,5.75088,5.75088,0,0,0-1.24274-2.79512,8.00013,8.00013,0,0,0-2.66009-1.6238,13.82069,13.82069,0,0,0-5.49092-1.13555A9.1526,9.1526,0,0,0,45.28312,28.373a10.78117,10.78117,0,0,0-2.72364,7.5198,10.35793,10.35793,0,0,0,1.9375,6.59859,7.4684,7.4684,0,0,0,6.18171,2.672A10.21,10.21,0,0,0,55.864,43.77773Zm-9.223-3.53744a8.08432,8.08432,0,0,1-1.09581-4.39913,7.49427,7.49427,0,0,1,1.98517-5.42341,6.958,6.958,0,0,1,5.27251-2.06851,9.45611,9.45611,0,0,1,4.30781,1.203l.0119.00789A2.92326,2.92326,0,0,1,58.49225,31.446c.77423,2.9221-.6273,6.51922-2.69977,8.58773a7.4359,7.4359,0,0,1-5.33611,2.25115A4.17769,4.17769,0,0,1,46.64094,40.24029Z"/><path class="cls-1" d="M26.36755,81.69281a1.40023,1.40023,0,0,0,1.57232,1.25465,1.429,1.429,0,0,0,1.469-1.25465q.15484-1.10174.31365-2.20348,3.82339,4.08545,8.43292,4.08935a8.12908,8.12908,0,0,0,5.9197-2.30671,7.78907,7.78907,0,0,0,2.35835-5.81648,11.57976,11.57976,0,0,0-2.672-7.28155q-2.8288-3.6149-6.547-3.61294-4.9787,0-8.17482,6.91229Q28.462,61.78374,28.30907,60.158c-.19928-1.634-.97865-5.99927-1.24554-7.18641a1.44273,1.44273,0,0,0-2.83378.53516c.10073.64511.7552,4.3426.80562,4.733q.72177,5.58273,1.07017,13.444v5.08193A32.5138,32.5138,0,0,0,26.36755,81.69281ZM31.8863,72.454a19.02346,19.02346,0,0,1,1.02036-1.87c1.10772-1.77073,3.2239-3.601,5.475-2.97771a7.052,7.052,0,0,1,4.39913,4.51818A8.00253,8.00253,0,0,1,43.023,77.52a4.4037,4.4037,0,0,1-1.08788,1.70724c-2.12015,2.04073-6.08251,1.54444-8.3853-.1072A5.39659,5.39659,0,0,1,31.8863,72.454Z"/><path class="cls-1" d="M125.60134,94.68644l-8.47845-23.0566a5.57083,5.57083,0,0,0-6.08627-2.496L81.55054,76.30649,67.30389,57.35668a4.7,4.7,0,0,0-3.01225-2.23879l-.07972-.01852a4.97964,4.97964,0,0,0-5.53768,7.39627L82.665,101.82574l2.30218,4.42406-9.90547-1.70815c-.31355-.07448-7.76171-1.76885-10.74049,4.119l-.00611.01211a1.2975,1.2975,0,0,0,.70193,1.78671c5.53157,2.135,26.34669,9.637,26.34669,9.637a22.42985,22.42985,0,0,0,19.11963-1.853l8.57832-5.10839A15.325,15.325,0,0,0,125.60134,94.68644Z"/><path class="cls-2" d="M63.06563,115.51372a6.71452,6.71452,0,0,1-3.58857-9.27974,12.91927,12.91927,0,0,1,8.44854-6.8227.15274.15274,0,0,0-.03872-.30108H13.967A4.99132,4.99132,0,0,1,9.0099,94.15128V19.08715a4.98822,4.98822,0,0,1,4.95713-4.959H73.44882a4.98813,4.98813,0,0,1,4.95708,4.959v44.02l5.33117,7.09127,2.2221-.5405V19.08715a12.05388,12.05388,0,0,0-3.6744-8.83779,12.05279,12.05279,0,0,0-8.836-3.67445H13.967a12.05283,12.05283,0,0,0-8.836,3.67445,12.05388,12.05388,0,0,0-3.6744,8.83779v85.07424a12.04593,12.04593,0,0,0,3.6744,8.83417,12.04589,12.04589,0,0,0,8.836,3.6744H66.13181s-.30729-.11447-.45646-.17013C64.63133,116.11029,63.738,115.77323,63.06563,115.51372ZM47.22856,111.7165a4.90872,4.90872,0,1,1,1.48532-3.517A4.81573,4.81573,0,0,1,47.22856,111.7165Z"/></svg>